<svg viewBox="0 0 47.83163172212655 50" xmlns="http://www.w3.org/2000/svg" xmlns:xlink="http://www.w3.org/1999/xlink" version="1.1" class="jsx-2263963463 artboard-inner" style="width: 55px; height: 57.4933px; max-height: 100%;"><g transform="translate(-1.594387724070885 -0.5102040602987336) scale(0.39859693101772126)" id="lockup4-icon"><g fill="#5961F9"><path d="M81.213 1.283L64.146 9.654 46.94 1.28C41.621 3.887 4 22.264 4 22.264v75.761l59 28.597V27.26l-15-7.006v79.074c0 .541-.087 1.153-.666 1.37-.47.177-1.008-.025-1.474-.117-.411-.08-.701-.129-1.091-.311-.451-.211-.904-.421-1.355-.635l-7.781-3.685-8.627-4.084c-2.053-.972-4.365-1.81-6.177-3.151-.181-.134-.327-.321-.462-.5-.248-.327-.288-.614-.331-1.025-.063-.61-.036-1.222-.036-1.834v-4.383-7.078-8.762-9.435-9.099-7.751-7.418L5.479 22.963c.033-.059 15.804 6.109 15.806 6.109L46.471 16.75c.011-.006.022.004.033-.001.028-.014.057-.02.087-.03.03-.012.062-.019.094-.028a.614.614 0 0 1 .084-.023c.026-.007.053-.009.079-.015.034-.006.066-.008.1-.012s.065-.007.099-.007c.013 0 .024-.004.038-.004.012 0 .023.003.036.003l.098.008.099.013a.725.725 0 0 1 .081.016c.028.006.057.016.084.024.032.008.062.019.092.03s.061.022.089.036c.011.005.022.007.034.013l16.463 8.069 16.463-8.069c.01-.005.021-.007.032-.012.028-.014.058-.024.086-.036a.958.958 0 0 1 .096-.03.698.698 0 0 1 .083-.024c.026-.007.053-.011.08-.016.033-.005.066-.009.101-.012.032-.004.064-.007.099-.008.012 0 .023-.004.036-.004s.023.004.036.004a1.737 1.737 0 0 1 .199.02c.026.005.054.009.08.016l.084.024c.031.008.063.019.094.03.029.012.058.022.087.036.014.006.026.016.04.022a1.112 1.112 0 0 1 .001 0c-.014-.007-.026-.017-.039-.022.011.005.022.007.034.012L107.084 29.1 124 22.298v-.034L81.213 1.283z"></path><path d="M108 33.114v49.074c0 1.127.07 2.313.041 3.463-.005.193-.004.401-.007.617-.009.805-.053 1.713-.535 2.287-1.063 1.266-2.841 1.717-4.281 2.396l-8.717 4.111a34152.82 34152.82 0 0 1-8.707 4.106l-3.956 1.866c-.194.096-.412-.09-.622-.09-.255 0-.415-.188-.639-.328-.408-.253-.577-.815-.577-1.296V20.254L65 27.26v99.46l59-28.695v-75.71l-16 9.113c-.129.074 0 1.54 0 1.686z"></path><path d="M83 97.089l21.383-10.572-13.654-9.336L106 84.492V31.334l-23-11.08v15.154l7 3.594.211 37.93L83 80.478zM46 35.337V20.254L23 31.485v53.009l15.072-7.671L24 86.564l22 10.532V80.557l-7.07-4.126.07-37.425z"></path></g></g></svg>

